# xmcd
#
# Track frame offsets:
#        150
#        15393
#        29268
#        43817
#        57466
#        75204
#        94859
#        110265
#        122268
#        136819
#        147136
#        163516
#        175638
#        192291
#
# Disc length: 2850 seconds
#
# Revision: 1
# Processed by: cddbd v1.5.1PL2 Copyright (c) Steve Scherf et al.
# Submitted via: jack 3.1.1
#
DISCID=a40b200e
DTITLE=Ed Burleson - The Cold Hard Truth
DYEAR=2004
DGENRE=
TTITLE0=Honky-Tonk Heart
TTITLE1=All Bucked Up
TTITLE2=The Cold Hard Truth
TTITLE3=If You Wanna Go (Just Go)
TTITLE4=Loneliness
TTITLE5=Northeast Texas Women
TTITLE6=Long Distance Love
TTITLE7=Ramble On
TTITLE8=Tell Me Why
TTITLE9=Sneakin' Suspicion
TTITLE10=I Can't Help Myself
TTITLE11=The Can
TTITLE12=Dead Skunk
TTITLE13=Heart Break Highway
EXTD=
EXTT0=
EXTT1=
EXTT2=
EXTT3=
EXTT4=
EXTT5=
EXTT6=
EXTT7=
EXTT8=
EXTT9=
EXTT10=
EXTT11=
EXTT12=
EXTT13=
PLAYORDER=
